<?xml version="1.0" standalone="no"?><!DOCTYPE svg PUBLIC "-//W3C//DTD SVG 1.1//EN" "http://www.w3.org/Graphics/SVG/1.1/DTD/svg11.dtd"><svg t="1747362382156" class="icon" viewBox="0 0 1024 1024" version="1.1" xmlns="http://www.w3.org/2000/svg" p-id="2071" xmlns:xlink="http://www.w3.org/1999/xlink" width="200" height="200"><path d="M726.698667 128h-2.730667c-18.730667 0-34.858667 0-48.213333 0.896-14.08 0.981333-28.16 3.072-42.069334 8.832a128 128 0 0 0-69.290666 69.290667 130.986667 130.986667 0 0 0-8.832 42.069333C554.666667 262.4 554.666667 278.570667 554.666667 297.301333v2.730667c0 18.730667 0 34.858667 0.896 48.213333 0.981333 14.08 3.072 28.16 8.832 42.069334a128 128 0 0 0 69.290666 69.290666c13.909333 5.76 27.989333 7.850667 42.069334 8.832 13.354667 0.896 29.482667 0.896 48.213333 0.896h2.730667c18.730667 0 34.858667 0 48.213333-0.896 14.08-0.981333 28.16-3.072 42.069333-8.832a128 128 0 0 0 69.290667-69.290666c5.76-13.909333 7.850667-27.989333 8.832-42.069334C896 334.933333 896 318.762667 896 300.032v-2.730667c0-18.730667 0-34.858667-0.896-48.213333a131.072 131.072 0 0 0-8.832-42.069333 128 128 0 0 0-69.290667-69.290667 130.986667 130.986667 0 0 0-42.069333-8.832C761.6 128 745.429333 128 726.698667 128z m-60.373334 88.576c1.792-0.725333 5.504-1.877333 15.232-2.56C691.626667 213.418667 704.853333 213.333333 725.333333 213.333333s33.706667 0 43.776 0.725334c9.728 0.64 13.44 1.792 15.232 2.56a42.666667 42.666667 0 0 1 23.04 23.04c0.768 1.792 1.92 5.504 2.56 15.232C810.666667 264.96 810.666667 278.186667 810.666667 298.666667s0 33.706667-0.725334 43.776c-0.64 9.728-1.792 13.44-2.56 15.232a42.666667 42.666667 0 0 1-23.04 23.04c-1.792 0.768-5.504 1.92-15.232 2.56C759.04 384 745.813333 384 725.333333 384s-33.706667 0-43.776-0.725333c-9.728-0.64-13.44-1.792-15.232-2.56a42.666667 42.666667 0 0 1-23.04-23.04c-0.768-1.792-1.92-5.504-2.56-15.232A720.554667 720.554667 0 0 1 640 298.666667c0-20.48 0-33.706667 0.725333-43.776 0.64-9.728 1.792-13.44 2.56-15.232a42.666667 42.666667 0 0 1 23.04-23.04zM297.301333 554.666667h2.730667c18.730667 0 34.858667 0 48.213333 0.896 14.08 0.981333 28.16 3.072 42.069334 8.832a128 128 0 0 1 69.290666 69.290666c5.76 13.909333 7.850667 27.989333 8.832 42.069334 0.896 13.354667 0.896 29.482667 0.896 48.213333v2.730667c0 18.730667 0 34.858667-0.896 48.213333-0.981333 14.08-3.072 28.16-8.832 42.069333a128 128 0 0 1-69.290666 69.290667 131.072 131.072 0 0 1-42.069334 8.832C334.933333 896 318.762667 896 300.032 896h-2.730667c-18.730667 0-34.858667 0-48.213333-0.896a131.072 131.072 0 0 1-42.069333-8.832 128 128 0 0 1-69.290667-69.290667 130.986667 130.986667 0 0 1-8.832-42.069333C128 761.6 128 745.429333 128 726.698667v-2.730667c0-18.730667 0-34.858667 0.896-48.213333 0.981333-14.08 3.072-28.16 8.832-42.069334a128 128 0 0 1 69.290667-69.290666 130.986667 130.986667 0 0 1 42.069333-8.832C262.4 554.666667 278.570667 554.666667 297.301333 554.666667z m-42.410666 86.058666c-9.728 0.64-13.44 1.792-15.232 2.56a42.666667 42.666667 0 0 0-23.04 23.04c-0.768 1.792-1.92 5.504-2.56 15.232C213.333333 691.626667 213.333333 704.853333 213.333333 725.333333s0 33.706667 0.725334 43.776c0.64 9.728 1.792 13.44 2.56 15.232a42.666667 42.666667 0 0 0 23.04 23.04c1.792 0.768 5.504 1.92 15.232 2.56C264.96 810.666667 278.186667 810.666667 298.666667 810.666667s33.706667 0 43.776-0.725334c9.728-0.64 13.44-1.792 15.232-2.56a42.666667 42.666667 0 0 0 23.04-23.04c0.768-1.792 1.92-5.504 2.56-15.232C384 759.04 384 745.813333 384 725.333333s0-33.706667-0.725333-43.776c-0.64-9.728-1.792-13.44-2.56-15.232a42.666667 42.666667 0 0 0-23.04-23.04c-1.792-0.768-5.504-1.92-15.232-2.56A720.554667 720.554667 0 0 0 298.666667 640c-20.48 0-33.706667 0-43.776 0.725333zM723.968 554.666667h2.730667c18.730667 0 34.858667 0 48.213333 0.896 14.08 0.981333 28.16 3.072 42.069333 8.832a128 128 0 0 1 69.290667 69.290666c5.76 13.909333 7.850667 27.989333 8.832 42.069334 0.896 13.354667 0.896 29.482667 0.896 48.213333v2.730667c0 18.730667 0 34.858667-0.896 48.213333-0.981333 14.08-3.072 28.16-8.832 42.069333a128 128 0 0 1-69.290667 69.290667 131.114667 131.114667 0 0 1-42.069333 8.832c-13.354667 0.896-29.482667 0.896-48.213333 0.896h-2.730667c-18.730667 0-34.858667 0-48.213333-0.896a131.072 131.072 0 0 1-42.069334-8.832 128 128 0 0 1-69.290666-69.290667 130.986667 130.986667 0 0 1-8.832-42.069333C554.666667 761.6 554.666667 745.429333 554.666667 726.698667v-2.730667c0-18.730667 0-34.858667 0.896-48.213333 0.981333-14.08 3.072-28.16 8.832-42.069334a128 128 0 0 1 69.290666-69.290666c13.909333-5.76 27.989333-7.850667 42.069334-8.832 13.354667-0.896 29.482667-0.896 48.213333-0.896z m-42.410667 86.058666c-9.728 0.64-13.44 1.792-15.232 2.56a42.666667 42.666667 0 0 0-23.04 23.04c-0.768 1.792-1.92 5.504-2.56 15.232C640 691.626667 640 704.853333 640 725.333333s0 33.706667 0.725333 43.776c0.64 9.728 1.792 13.44 2.56 15.232a42.666667 42.666667 0 0 0 23.04 23.04c1.792 0.768 5.504 1.92 15.232 2.56C691.626667 810.666667 704.853333 810.666667 725.333333 810.666667s33.706667 0 43.776-0.725334c9.728-0.64 13.44-1.792 15.232-2.56a42.666667 42.666667 0 0 0 23.04-23.04c0.768-1.792 1.92-5.504 2.56-15.232C810.666667 759.04 810.666667 745.813333 810.666667 725.333333s0-33.706667-0.725334-43.776c-0.64-9.728-1.792-13.44-2.56-15.232a42.666667 42.666667 0 0 0-23.04-23.04c-1.792-0.768-5.504-1.92-15.232-2.56A720.426667 720.426667 0 0 0 725.333333 640c-20.48 0-33.706667 0-43.776 0.725333zM297.301333 128h2.730667c18.730667 0 34.858667 0 48.213333 0.896 14.08 0.981333 28.16 3.072 42.069334 8.832a128 128 0 0 1 69.290666 69.290667c5.76 13.909333 7.850667 27.989333 8.832 42.069333 0.896 13.354667 0.896 29.482667 0.896 48.213333v2.730667c0 18.730667 0 34.858667-0.896 48.213333-0.981333 14.08-3.072 28.16-8.832 42.069334a128 128 0 0 1-69.290666 69.290666 131.072 131.072 0 0 1-42.069334 8.832C334.933333 469.333333 318.762667 469.333333 300.032 469.333333h-2.730667c-18.730667 0-34.858667 0-48.213333-0.896a131.072 131.072 0 0 1-42.069333-8.832 128 128 0 0 1-69.290667-69.290666 130.986667 130.986667 0 0 1-8.832-42.069334C128 334.933333 128 318.762667 128 300.032v-2.730667c0-18.730667 0-34.858667 0.896-48.213333 0.981333-14.08 3.072-28.16 8.832-42.069333a128 128 0 0 1 69.290667-69.290667 130.986667 130.986667 0 0 1 42.069333-8.832C262.4 128 278.570667 128 297.301333 128z m-42.410666 86.058667c-9.728 0.64-13.44 1.792-15.232 2.56a42.666667 42.666667 0 0 0-23.04 23.04c-0.768 1.792-1.92 5.504-2.56 15.232C213.333333 264.96 213.333333 278.186667 213.333333 298.666667s0 33.706667 0.725334 43.776c0.64 9.728 1.792 13.44 2.56 15.232a42.666667 42.666667 0 0 0 23.04 23.04c1.792 0.768 5.504 1.92 15.232 2.56C264.96 384 278.186667 384 298.666667 384s33.706667 0 43.776-0.725333c9.728-0.64 13.44-1.792 15.232-2.56a42.666667 42.666667 0 0 0 23.04-23.04c0.768-1.792 1.92-5.504 2.56-15.232C384 332.373333 384 319.146667 384 298.666667s0-33.706667-0.725333-43.776c-0.64-9.728-1.792-13.44-2.56-15.232a42.666667 42.666667 0 0 0-23.04-23.04c-1.792-0.768-5.504-1.92-15.232-2.56A721.493333 721.493333 0 0 0 298.666667 213.333333c-20.48 0-33.706667 0-43.776 0.725334z" fill="#2A343D" p-id="2072"></path></svg>