<?xml version="1.0" standalone="no"?><!DOCTYPE svg PUBLIC "-//W3C//DTD SVG 1.1//EN" "http://www.w3.org/Graphics/SVG/1.1/DTD/svg11.dtd"><svg t="1747362362525" class="icon" viewBox="0 0 1024 1024" version="1.1" xmlns="http://www.w3.org/2000/svg" p-id="1741" xmlns:xlink="http://www.w3.org/1999/xlink" width="200" height="200"><path d="M588.501333 588.501333a42.666667 42.666667 0 0 1 60.330667 0l234.666667 234.666667a42.666667 42.666667 0 0 1-60.330667 60.330667l-234.666667-234.666667a42.666667 42.666667 0 0 1 0-60.330667z" fill="#2A343D" p-id="1742"></path><path d="M426.666667 213.333333a213.333333 213.333333 0 1 0 0 426.666667 213.333333 213.333333 0 0 0 0-426.666667z m-298.666667 213.333334a298.666667 298.666667 0 1 1 597.333333 0 298.666667 298.666667 0 0 1-597.333333 0z" fill="#2A343D" p-id="1743"></path></svg>