<?xml version="1.0" standalone="no"?><!DOCTYPE svg PUBLIC "-//W3C//DTD SVG 1.1//EN" "http://www.w3.org/Graphics/SVG/1.1/DTD/svg11.dtd"><svg t="1747362326357" class="icon" viewBox="0 0 1024 1024" version="1.1" xmlns="http://www.w3.org/2000/svg" p-id="1415" xmlns:xlink="http://www.w3.org/1999/xlink" width="200" height="200"><path d="M436.224 258.346667C427.562667 256.256 417.877333 256 384.512 256H332.8c-36.565333 0-61.397333 0-80.597333 1.621333-18.688 1.493333-28.288 4.266667-34.944 7.68a85.333333 85.333333 0 0 0-37.290667 37.290667c-3.413333 6.656-6.186667 16.213333-7.68 34.986667C170.666667 356.736 170.666667 381.525333 170.666667 418.133333v187.733334c0 36.565333 0 61.397333 1.621333 80.597333 1.493333 18.688 4.266667 28.288 7.68 34.944a85.333333 85.333333 0 0 0 37.290667 37.290667c6.656 3.413333 16.213333 6.186667 34.944 7.68C271.402667 768 296.234667 768 332.8 768h358.4c36.565333 0 61.397333 0 80.597333-1.621333 18.688-1.493333 28.288-4.266667 34.944-7.68a85.333333 85.333333 0 0 0 37.290667-37.290667c3.413333-6.656 6.186667-16.213333 7.68-34.944 1.578667-19.2 1.621333-44.032 1.621333-80.597333v-102.4c0-36.565333 0-61.397333-1.621333-80.597334-1.493333-18.688-4.266667-28.288-7.68-34.944a85.333333 85.333333 0 0 0-37.290667-37.290666c-6.656-3.413333-16.213333-6.186667-34.944-7.68C752.597333 341.333333 727.765333 341.333333 691.2 341.333333H554.666667a42.666667 42.666667 0 0 1-30.165334-12.501333l-25.344-25.344c-23.594667-23.552-30.634667-30.250667-38.272-34.901333a85.418667 85.418667 0 0 0-24.661333-10.24zM388.864 170.666667c27.093333 0 47.530667 0 67.285333 4.693333a170.666667 170.666667 0 0 1 49.322667 20.48c17.322667 10.581333 31.786667 25.088 50.944 44.245333l3.072 3.072 12.842667 12.842667h120.618666c34.346667 0 62.72 0 85.76 1.877333 24.021333 1.962667 46.08 6.186667 66.773334 16.725334a170.666667 170.666667 0 0 1 74.581333 74.581333c10.538667 20.693333 14.762667 42.752 16.725333 66.730667 1.877333 23.082667 1.877333 51.456 1.877334 85.76v105.941333c0 34.346667 0 62.72-1.877334 85.76-1.962667 24.021333-6.186667 46.08-16.725333 66.773333a170.666667 170.666667 0 0 1-74.581333 74.581334c-20.693333 10.538667-42.752 14.762667-66.730667 16.725333-23.082667 1.877333-51.456 1.877333-85.76 1.877333H331.008c-34.346667 0-62.72 0-85.76-1.877333-24.021333-1.962667-46.08-6.186667-66.773333-16.725333a170.666667 170.666667 0 0 1-74.581334-74.581334c-10.538667-20.693333-14.762667-42.752-16.725333-66.730666C85.333333 670.293333 85.333333 641.962667 85.333333 607.658667V416.341333c0-34.346667 0-62.72 1.877334-85.76 1.962667-24.021333 6.186667-46.08 16.725333-66.773333a170.666667 170.666667 0 0 1 74.581333-74.581333c20.693333-10.538667 42.752-14.762667 66.730667-16.725334C268.373333 170.666667 296.704 170.666667 331.008 170.666667h57.856z" fill="#2A343D" p-id="1416"></path></svg>