<?xml version="1.0" standalone="no"?><!DOCTYPE svg PUBLIC "-//W3C//DTD SVG 1.1//EN" "http://www.w3.org/Graphics/SVG/1.1/DTD/svg11.dtd"><svg t="1747362369144" class="icon" viewBox="0 0 1024 1024" version="1.1" xmlns="http://www.w3.org/2000/svg" p-id="1906" xmlns:xlink="http://www.w3.org/1999/xlink" width="200" height="200"><path d="M810.666667 170.666667c25.6 0 42.666667 17.066667 42.666666 42.666666v85.333334c0 25.6-17.066667 42.666667-42.666666 42.666666s-42.666667-17.066667-42.666667-42.666666V213.333333c0-25.6 17.066667-42.666667 42.666667-42.666666zM554.666667 725.333333c0-25.6-17.066667-42.666667-42.666667-42.666666s-42.666667 17.066667-42.666667 42.666666v85.333334c0 25.6 17.066667 42.666667 42.666667 42.666666s42.666667-17.066667 42.666667-42.666666v-85.333334zM512 170.666667c25.6 0 42.666667 17.066667 42.666667 42.666666v341.333334c0 25.6-17.066667 42.666667-42.666667 42.666666s-42.666667-17.066667-42.666667-42.666666V213.333333c0-25.6 17.066667-42.666667 42.666667-42.666666zM256 213.333333c0-25.6-17.066667-42.666667-42.666667-42.666666s-42.666667 17.066667-42.666666 42.666666v170.666667c0 25.6 17.066667 42.666667 42.666666 42.666667s42.666667-17.066667 42.666667-42.666667V213.333333zM256 554.666667c0-25.6-17.066667-42.666667-42.666667-42.666667s-42.666667 17.066667-42.666666 42.666667v256c0 25.6 17.066667 42.666667 42.666666 42.666666s42.666667-17.066667 42.666667-42.666666v-256zM853.333333 469.333333c0-25.6-17.066667-42.666667-42.666666-42.666666s-42.666667 17.066667-42.666667 42.666666v341.333334c0 25.6 17.066667 42.666667 42.666667 42.666666s42.666667-17.066667 42.666666-42.666666v-341.333334z" fill="#2A343D" p-id="1907"></path><path d="M810.666667 341.333333c25.6 0 42.666667 17.066667 42.666666 42.666667s-17.066667 42.666667-42.666666 42.666667-42.666667-17.066667-42.666667-42.666667 17.066667-42.666667 42.666667-42.666667m0-85.333333c-72.533333 0-128 55.466667-128 128s55.466667 128 128 128 128-55.466667 128-128-55.466667-128-128-128zM512 597.333333c25.6 0 42.666667 17.066667 42.666667 42.666667s-17.066667 42.666667-42.666667 42.666667-42.666667-17.066667-42.666667-42.666667 17.066667-42.666667 42.666667-42.666667m0-85.333333c-72.533333 0-128 55.466667-128 128s55.466667 128 128 128 128-55.466667 128-128-55.466667-128-128-128zM213.333333 426.666667c25.6 0 42.666667 17.066667 42.666667 42.666666s-17.066667 42.666667-42.666667 42.666667-42.666667-17.066667-42.666666-42.666667 17.066667-42.666667 42.666666-42.666666m0-85.333334c-72.533333 0-128 55.466667-128 128s55.466667 128 128 128 128-55.466667 128-128-55.466667-128-128-128z" fill="#2A343D" p-id="1908"></path></svg>